<svg width="22" height="21" viewBox="0 0 22 21" fill="none" xmlns="http://www.w3.org/2000/svg">
<g id="box">
<g id="Vector">
<path d="M18.6875 13.6675V6.83419C18.6872 6.53461 18.6081 6.24038 18.4582 5.98101C18.3083 5.72165 18.0928 5.50627 17.8333 5.35648L11.8542 1.93981C11.5945 1.78987 11.2999 1.71094 11 1.71094C10.7001 1.71094 10.4055 1.78987 10.1458 1.93981L4.16667 5.35648C3.90722 5.50627 3.69173 5.72165 3.54181 5.98101C3.39189 6.24038 3.31281 6.53461 3.3125 6.83419V13.6675C3.31281 13.9671 3.39189 14.2613 3.54181 14.5207C3.69173 14.7801 3.90722 14.9954 4.16667 15.1452L10.1458 18.5619C10.4055 18.7118 10.7001 18.7908 11 18.7908C11.2999 18.7908 11.5945 18.7118 11.8542 18.5619L17.8333 15.1452C18.0928 14.9954 18.3083 14.7801 18.4582 14.5207C18.6081 14.2613 18.6872 13.9671 18.6875 13.6675Z" fill="#150101"/>
<path d="M3.54312 5.94585L11 10.2594L18.4569 5.94585" fill="#150101"/>
<path d="M3.54312 5.94585L11 10.2594L18.4569 5.94585M11 18.8609V10.2509M18.6875 13.6675V6.83419C18.6872 6.53461 18.6081 6.24038 18.4582 5.98101C18.3083 5.72165 18.0928 5.50627 17.8333 5.35648L11.8542 1.93981C11.5945 1.78987 11.2999 1.71094 11 1.71094C10.7001 1.71094 10.4055 1.78987 10.1458 1.93981L4.16667 5.35648C3.90722 5.50627 3.69173 5.72165 3.54181 5.98101C3.39189 6.24038 3.31281 6.53461 3.3125 6.83419V13.6675C3.31281 13.9671 3.39189 14.2613 3.54181 14.5207C3.69173 14.7801 3.90722 14.9954 4.16667 15.1452L10.1458 18.5619C10.4055 18.7118 10.7001 18.7908 11 18.7908C11.2999 18.7908 11.5945 18.7118 11.8542 18.5619L17.8333 15.1452C18.0928 14.9954 18.3083 14.7801 18.4582 14.5207C18.6081 14.2613 18.6872 13.9671 18.6875 13.6675Z" stroke="white" stroke-width="2" stroke-linecap="round" stroke-linejoin="round"/>
</g>
</g>
</svg>
