<svg width="19" height="19" viewBox="0 0 19 19" fill="none" xmlns="http://www.w3.org/2000/svg">
<g id="Cloud">
<path id="Icon" d="M14.2501 7.75H13.3051C13.0245 6.66325 12.4447 5.67699 11.6316 4.9033C10.8184 4.1296 9.80462 3.59949 8.70527 3.37321C7.60593 3.14692 6.46515 3.23353 5.41257 3.62319C4.35999 4.01286 3.43781 4.68995 2.75082 5.57754C2.06383 6.46512 1.63958 7.52761 1.52626 8.64426C1.41295 9.76092 1.61513 10.887 2.10981 11.8945C2.6045 12.902 3.37187 13.7505 4.32472 14.3437C5.27757 14.9368 6.37769 15.2508 7.50008 15.25H14.2501C15.2446 15.25 16.1985 14.8549 16.9017 14.1516C17.605 13.4484 18.0001 12.4946 18.0001 11.5C18.0001 10.5054 17.605 9.55161 16.9017 8.84835C16.1985 8.14509 15.2446 7.75 14.2501 7.75Z" stroke="#080000" stroke-width="2" stroke-linecap="round" stroke-linejoin="round"/>
</g>
</svg>
