<svg width="23" height="22" viewBox="0 0 23 22" fill="none" xmlns="http://www.w3.org/2000/svg">
<g id="settings">
<path id="icon" d="M9.31988 20L8.94929 17.2C8.74855 17.1271 8.5594 17.0396 8.38182 16.9375C8.20425 16.8354 8.03054 16.726 7.86068 16.6094L5.10443 17.7031L2.55664 13.5469L4.9423 11.8406C4.92686 11.7385 4.91914 11.6401 4.91914 11.5453V10.9547C4.91914 10.8599 4.92686 10.7615 4.9423 10.6594L2.55664 8.95312L5.10443 4.79688L7.86068 5.89062C8.03054 5.77396 8.20811 5.66458 8.39341 5.5625C8.5787 5.46042 8.76399 5.37292 8.94929 5.3L9.31988 2.5H14.4155L14.7861 5.3C14.9868 5.37292 15.1759 5.46042 15.3535 5.5625C15.5311 5.66458 15.7048 5.77396 15.8747 5.89062L18.6309 4.79688L21.1787 8.95312L18.793 10.6594C18.8085 10.7615 18.8162 10.8599 18.8162 10.9547V11.5453C18.8162 11.6401 18.8008 11.7385 18.7699 11.8406L21.1555 13.5469L18.6077 17.7031L15.8747 16.6094C15.7048 16.726 15.5272 16.8354 15.3419 16.9375C15.1566 17.0396 14.9713 17.1271 14.7861 17.2L14.4155 20H9.31988ZM11.914 14.3125C12.8096 14.3125 13.5739 14.0135 14.207 13.4156C14.8401 12.8177 15.1566 12.0958 15.1566 11.25C15.1566 10.4042 14.8401 9.68229 14.207 9.08437C13.5739 8.48646 12.8096 8.1875 11.914 8.1875C11.003 8.1875 10.2348 8.48646 9.6094 9.08437C8.98403 9.68229 8.67135 10.4042 8.67135 11.25C8.67135 12.0958 8.98403 12.8177 9.6094 13.4156C10.2348 14.0135 11.003 14.3125 11.914 14.3125Z" fill="black"/>
</g>
</svg>
