<svg width="129" height="32" viewBox="0 0 129 32" fill="none" xmlns="http://www.w3.org/2000/svg">
<path d="M54.1589 11.7213C54.7682 10.9374 55.5651 10.3515 56.5443 9.96085C57.5286 9.57283 58.6536 9.37752 59.9193 9.37752V14.7942C59.3698 14.7265 58.9141 14.69 58.5547 14.69C57.2682 14.69 56.263 15.0416 55.5339 15.7421C54.8099 16.4374 54.4505 17.5025 54.4505 18.94V26.815H48.4297V9.65877H54.1589V11.7213Z" fill="black"/>
<path d="M65.2917 8.99959C68.138 8.99959 70.3125 9.65063 71.8125 10.9475C73.3125 12.247 74.0625 14.2366 74.0625 16.9163V26.4371H68.4583V24.2183C67.5885 25.885 65.901 26.7183 63.3958 26.7183C62.0625 26.7183 60.9089 26.4892 59.9375 26.0308C58.9714 25.5673 58.2396 24.9371 57.7396 24.1454C57.2448 23.3538 57 22.4527 57 21.4371C57 19.8121 57.6198 18.5517 58.8646 17.6558C60.1146 16.76 62.0339 16.3121 64.625 16.3121H68.0417C67.9375 14.4996 66.724 13.5933 64.4062 13.5933C63.5859 13.5933 62.7526 13.7262 61.9062 13.9892C61.0651 14.2548 60.3464 14.6142 59.75 15.0725L57.7292 10.9892C58.6797 10.359 59.8359 9.86938 61.1979 9.52042C62.5573 9.17407 63.9219 8.99959 65.2917 8.99959ZM65.0729 22.9267C65.7656 22.9267 66.3776 22.76 66.9062 22.4267C67.4323 22.0881 67.8125 21.5881 68.0417 20.9267V19.4475H65.4479C63.6979 19.4475 62.8229 20.0282 62.8229 21.1871C62.8229 21.7157 63.0234 22.1402 63.4271 22.4579C63.8281 22.7704 64.3776 22.9267 65.0729 22.9267Z" fill="black"/>
<path d="M93.9336 9.65877L86.8503 26.815H80.6419L73.5898 9.65877H79.7565L83.8711 20.1379L88.2044 9.65877H93.9336Z" fill="black"/>
<path d="M100.867 27.0963C99.026 27.0963 97.3672 26.7187 95.888 25.9609C94.4141 25.2056 93.263 24.1536 92.4297 22.8046C91.5964 21.4504 91.1797 19.9192 91.1797 18.2109C91.1797 16.5234 91.5964 15.0077 92.4297 13.6588C93.263 12.3046 94.4115 11.2525 95.8776 10.5025C97.3411 9.75252 99.0052 9.37752 100.867 9.37752C102.721 9.37752 104.383 9.75252 105.857 10.5025C107.336 11.2525 108.484 12.2994 109.305 13.6379C110.13 14.9791 110.544 16.5025 110.544 18.2109C110.544 19.9192 110.13 21.4504 109.305 22.8046C108.484 24.1536 107.336 25.2056 105.857 25.9609C104.383 26.7187 102.721 27.0963 100.867 27.0963ZM100.867 22.3254C101.922 22.3254 102.786 21.9609 103.461 21.2317C104.133 20.5025 104.471 19.4973 104.471 18.2109C104.471 16.94 104.133 15.9478 103.461 15.2317C102.786 14.5181 101.922 14.1588 100.867 14.1588C99.8099 14.1588 98.9427 14.5181 98.263 15.2317C97.5885 15.9478 97.2526 16.94 97.2526 18.2109C97.2526 19.4973 97.5885 20.5025 98.263 21.2317C98.9427 21.9609 99.8099 22.3254 100.867 22.3254Z" fill="black"/>
<mask id="mask0_1_34058" style="mask-type:luminance" maskUnits="userSpaceOnUse" x="107" y="-1" width="12" height="33">
<path d="M107.029 -0.000411987H118.363V31.9996H107.029V-0.000411987Z" fill="white"/>
</mask>
<g mask="url(#mask0_1_34058)">
<mask id="mask1_1_34058" style="mask-type:luminance" maskUnits="userSpaceOnUse" x="101" y="0" width="25" height="32">
<path d="M101.805 5.04256L116.469 0.0269318L125.531 26.5191L110.867 31.5373L101.805 5.04256Z" fill="white"/>
</mask>
<g mask="url(#mask1_1_34058)">
<mask id="mask2_1_34058" style="mask-type:luminance" maskUnits="userSpaceOnUse" x="101" y="-2" width="25" height="35">
<path d="M101.342 3.69783L116.008 -1.31779L125.881 27.539L111.214 32.5572L101.342 3.69783Z" fill="white"/>
</mask>
<g mask="url(#mask2_1_34058)">
<path d="M108.655 1.19816L116.087 -1.34612L113.608 10.6617L117.967 9.17212L111.257 32.6669L112.118 15.9299L107.457 17.7867L108.655 1.19816Z" fill="#056FFC"/>
</g>
</g>
</g>
<mask id="mask3_1_34058" style="mask-type:luminance" maskUnits="userSpaceOnUse" x="107" y="0" width="7" height="33">
<path d="M107.029 0.667068H113.029V32.0004H107.029V0.667068Z" fill="white"/>
</mask>
<g mask="url(#mask3_1_34058)">
<mask id="mask4_1_34058" style="mask-type:luminance" maskUnits="userSpaceOnUse" x="101" y="0" width="25" height="32">
<path d="M101.805 5.04402L116.469 0.0283966L125.531 26.5206L110.867 31.5388L101.805 5.04402Z" fill="white"/>
</mask>
<g mask="url(#mask4_1_34058)">
<mask id="mask5_1_34058" style="mask-type:luminance" maskUnits="userSpaceOnUse" x="101" y="-2" width="25" height="35">
<path d="M101.342 3.70027L116.008 -1.31535L125.881 27.5414L111.214 32.5596L101.342 3.70027Z" fill="white"/>
</mask>
<g mask="url(#mask5_1_34058)">
<path d="M108.655 1.20027L109.936 0.762772L107.457 17.7888L108.655 1.20027ZM111.257 32.669L113.014 15.6248L112.118 15.932L111.257 32.669Z" fill="#5271FF"/>
</g>
</g>
</g>
<path d="M128.742 26.1187C128.234 26.439 127.617 26.6812 126.887 26.8479C126.158 27.0146 125.382 27.0979 124.564 27.0979C122.32 27.0979 120.598 26.551 119.398 25.4521C118.195 24.3557 117.596 22.7203 117.596 20.5458V14.7958H115.096V10.2958H117.596V5.83748H123.606V10.2958H127.533V14.7958H123.606V20.4833C123.606 21.1031 123.768 21.5849 124.096 21.9312C124.429 22.2802 124.869 22.4521 125.419 22.4521C126.111 22.4521 126.723 22.2724 127.252 21.9104L128.742 26.1187Z" fill="black"/>
<path d="M11.1771 9.37752C13.3073 9.37752 15.0208 10.0129 16.3125 11.2838C17.6094 12.5494 18.2604 14.4556 18.2604 17.0025V26.815H12.25V17.9817C12.25 15.6431 11.3125 14.4713 9.4375 14.4713C8.40104 14.4713 7.57292 14.8124 6.94792 15.4921C6.32812 16.1666 6.02083 17.177 6.02083 18.5234V26.815H0V9.65877H5.72917V11.5338C6.40104 10.8332 7.20312 10.2994 8.13542 9.9296C9.0651 9.56241 10.0781 9.37752 11.1771 9.37752Z" fill="black"/>
<path d="M36.3249 18.2734C36.3249 18.315 36.2936 18.8124 36.2311 19.7629H23.7624C24.0176 20.6457 24.5072 21.3254 25.2311 21.8046C25.9603 22.2786 26.8717 22.5129 27.9707 22.5129C28.7962 22.5129 29.5072 22.3984 30.1061 22.1692C30.7103 21.9348 31.3171 21.552 31.929 21.0234L35.0957 24.315C33.429 26.1692 30.9915 27.0963 27.7832 27.0963C25.7754 27.0963 24.0124 26.7187 22.4915 25.9609C20.9759 25.2056 19.804 24.1536 18.9707 22.8046C18.1374 21.4504 17.7207 19.9192 17.7207 18.2109C17.7207 16.5234 18.127 15.0103 18.9395 13.6692C19.752 12.3306 20.8717 11.2812 22.304 10.5234C23.7415 9.76033 25.3561 9.37752 27.1478 9.37752C28.8561 9.37752 30.403 9.73168 31.7936 10.44C33.1895 11.1484 34.2936 12.1744 35.1061 13.5129C35.9186 14.8463 36.3249 16.4348 36.3249 18.2734ZM27.179 13.6484C26.2546 13.6484 25.4811 13.914 24.8561 14.44C24.2311 14.9687 23.8353 15.6874 23.6686 16.5963H30.6999C30.5254 15.6874 30.127 14.9687 29.502 14.44C28.8822 13.914 28.1087 13.6484 27.179 13.6484Z" fill="black"/>
<path d="M53.9245 9.65877V26.815H48.1953V24.9817C47.5625 25.677 46.8021 26.2056 45.9141 26.565C45.0312 26.9192 44.0938 27.0963 43.1016 27.0963C40.8854 27.0963 39.1172 26.4452 37.7995 25.1379C36.4792 23.8332 35.8203 21.8723 35.8203 19.2525V9.65877H41.8307V18.2734C41.8307 19.5598 42.0729 20.4973 42.5599 21.0859C43.0443 21.677 43.7526 21.9713 44.6849 21.9713C45.6354 21.9713 46.4089 21.6431 47.0078 20.9817C47.612 20.315 47.9141 19.2942 47.9141 17.9192V9.65877H53.9245Z" fill="black"/>
</svg>
